<svg xmlns="http://www.w3.org/2000/svg" viewBox="0 0 25.8 25.8" width="512" height="512"><path d="M24.405 20.06l1.136-1.135c-1.13-1.13-2.502-1.867-3.95-2.22l-.006-.007-.004.004c-.926-.224-1.882-.295-2.827-.204.236-2.424-.57-4.932-2.426-6.788-1.852-1.852-4.35-2.657-6.767-2.426C9.967 4.71 9.187 1.984 7.2 0L6.066 1.137c.185.184.35.38.51.58L1.976 6.315c-.2-.16-.397-.324-.58-.51L.258 6.942C2.242 8.927 4.97 9.71 7.543 9.3c-.23 2.42.574 4.916 2.426 6.77 1.856 1.856 4.362 2.66 6.786 2.427-.413 2.58.37 5.314 2.36 7.303l1.136-1.138c-.164-.165-.308-.34-.452-.517l4.33-4.33c.09.084.188.158.275.246zm-6.1.55l2.44-2.443c.174.03.345.074.517.117l-2.867 2.868c-.035-.18-.07-.36-.09-.543zm.158-2.455c.57-.094 1.15-.11 1.724-.058l-1.922 1.922c-.018-.626.042-1.254.198-1.865zm-4.635-1.56l3.026-3.025c.053.165.093.332.133.5l-2.66 2.66c-.167-.042-.334-.082-.5-.135zm2.854-3.484l-3.313 3.313c-.51-.206-.997-.475-1.454-.81l3.958-3.956c.334.458.6.945.808 1.454zm-1.488-2.036l.316.317-3.946 3.947c-.114-.095-.226-.192-.335-.297l3.964-3.966zm-5.677 1.334l3.148-3.15c.155.057.31.107.46.174L9.69 12.87c-.065-.153-.115-.308-.17-.462zm2.674-3.303l-2.825 2.827c-.27-.975-.327-1.995-.158-2.986.99-.17 2.01-.11 2.984.16zM6.154 7.803c-.198-.002-.394-.024-.59-.043L8.02 5.302c.018.196.04.393.042.59l-1.91 1.91zm-1.144-.12c-.648-.117-1.278-.327-1.876-.63l4.178-4.178c.304.597.514 1.227.63 1.873L5.01 7.683zm1.83-5.6c.086.125.175.25.252.38l-4.368 4.37c-.13-.078-.257-.166-.382-.253L6.84 2.083zM6.817 7.77l1.21-1.212c-.03.35-.08.702-.164 1.046-.344.085-.696.133-1.046.165zm3.087 5.514l3.64-3.638c.51.27.992.605 1.434 1.013l-4.06 4.06c-.41-.443-.748-.926-1.015-1.436zm4.944 3.553l2.246-2.247c.12.743.122 1.5-.005 2.243-.742.126-1.498.123-2.24.004zm4.677 6.953c-.09-.125-.173-.252-.252-.382l4.146-4.146.318.316-4.21 4.212zm-.483-.783c-.227-.43-.41-.877-.537-1.336l3.244-3.246c.447.15.88.342 1.293.585l-4 3.997z" fill="#757575"/></svg>