<svg xmlns="http://www.w3.org/2000/svg" viewBox="0 0 612.003 612.003"><path d="M546.168 592.866c-.153-.41-.297-.797-.41-1.14-14.493-44.235-55.52-73.954-102.092-73.954-16.816 0-32.877 3.95-47.232 11-1.494-1.416-3.018-2.804-4.582-4.157-21.283-18.394-47.82-29.478-75.697-31.827v-41.023c8.27-3.99 19.707-4.678 32.812-5.463 26.22-1.566 58.854-3.518 86.564-33.798 35.644-38.956 43.218-109.386 35.364-127.218-2.71-6.152-7.03-7.07-9.366-7.07-2.28 0-4.477.836-6.53 2.485-7.19 5.768-20.062 6.462-34.968 7.267-26.14 1.408-58.672 3.163-85.435 32.407-7.355 8.037-13.45 17.254-18.438 26.99v-95.118c6.702-6.998 16.64-13.01 27.796-19.738 25.92-15.638 58.178-35.102 70.215-80.72C428.175 98.68 404.442 30.58 387.79 8.97 383.14 2.935 378.74 0 374.334 0c-1.915 0-6.652.648-9.268 6.646-4.403 10.093-17.376 17.816-32.397 26.76-25.92 15.434-58.18 34.64-69.798 78.68-14.644 55.506 10.504 120.383 26.564 141.23.42.547.84 1.06 1.253 1.56v51.462c-4.748-17.663-13.706-35.81-32.977-51.57-29.245-23.91-73.42-32.396-102.36-32.396-28.05 0-31.327 7.35-32.403 9.763-.736 1.652-2.008 5.982 2.077 10.53 6.16 6.857 7.57 19.672 9.2 34.51 2.862 26.02 6.424 58.403 37.11 83.496 28.686 23.46 70.435 31.817 99.94 31.817 7.756 0 14.22-.536 19.414-1.585V493.11c-26.722 2.893-52.07 13.807-72.55 31.507-1.564 1.35-3.088 2.74-4.582 4.158-14.353-7.052-30.416-11-47.232-11-22.118 0-43.36 6.67-61.43 19.29-17.65 12.33-31.07 29.426-38.8 49.438-2.883 7.46-2.688 13.91.56 18.65 3.116 4.545 8.502 6.85 16.008 6.85H533.863c5.75 0 9.855-1.707 12.2-5.072 3.465-4.98 1.28-10.89.106-14.064zm-282.93-242.702c-.34-.334-.69-.66-1.023-1.006l-.507-.516-.127-.13-.03-.032c-.038-.043.204.255.087.117l-.06-.055-.247-.214-1.972-1.73c-1.398-1.1-2.764-2.26-4.268-3.338-5.92-4.382-12.88-8.39-20.336-12.287-7.428-3.93-15.307-7.813-22.606-12.357-3.648-2.26-7.135-4.705-10.31-7.303-3.172-2.594-5.99-5.436-8.282-8.327-2.27-2.915-4.076-5.813-5.212-8.598-.316-.67-.565-1.35-.784-2.012-.233-.655-.437-1.287-.626-1.89-.3-1.25-.568-2.37-.744-3.402-.136-1.065-.236-1.992-.297-2.786-.065-.786 0-1.443 0-1.985l.07-1.66.922 1.383c.303.442.63 1.035 1.08 1.65l1.512 2.017 2 2.343c.836.767 1.544 1.673 2.525 2.474 1.797 1.705 4.057 3.335 6.567 4.943 2.524 1.606 5.375 3.153 8.556 4.643 3.163 1.512 6.633 2.964 10.3 4.494 7.326 3.05 15.504 6.35 23.635 10.602 4.057 2.132 8.09 4.524 11.917 7.223 3.832 2.69 7.44 5.72 10.636 9 1.61 1.62 3.088 3.352 4.463 5.08l1.95 2.653.24.326.06.08c-.098-.116.165.205.145.186l.026.038.095.153.388.613c.26.404.5.823.747 1.23 1.978 3.252 3.784 6.38 5.4 9.307.788 1.477 1.57 2.875 2.268 4.24.686 1.374 1.335 2.688 1.91 3.945 1.164 2.503 2.137 4.715 2.893 6.567 1.53 3.693 2.235 5.926 2.235 5.926s-1.945-1.272-5.052-3.714c-3.15-2.417-7.315-6.07-12.327-10.513-2.473-2.238-5.1-4.707-7.81-7.376zm42.225-115.33c.723-2.155 1.657-4.74 2.775-7.67 1.143-2.92 2.436-6.216 3.844-9.81 1.45-3.576 3.082-7.414 4.882-11.43.225-.503.45-1.007.68-1.515l.353-.76.088-.19.023-.05c.027-.05-.16.28-.073.12l.033-.09.136-.358 1.104-2.885c.647-1.992 1.36-3.982 1.93-6.083 2.38-8.344 3.843-17.67 4.912-27.425 1.113-9.742 1.927-19.897 3.64-29.655.846-4.873 1.94-9.64 3.324-14.133 1.38-4.49 3.162-8.698 5.216-12.373 2.084-3.663 4.345-6.833 6.772-9.253.565-.63 1.17-1.192 1.77-1.715.587-.532 1.16-1.03 1.712-1.5 1.182-.87 2.24-1.653 3.243-2.3 1.056-.62 1.986-1.14 2.79-1.566.8-.425 1.52-.66 2.088-.908l1.773-.69-1.152 1.513c-.365.495-.884 1.07-1.383 1.79l-1.632 2.416c-.543.93-1.142 1.964-1.798 3.087-.518 1.206-1.245 2.343-1.745 3.734l-.843 2.067c-.24.726-.488 1.473-.74 2.24-.27.745-.452 1.57-.685 2.37-.238.802-.45 1.63-.61 2.506-.77 3.424-1.334 7.19-1.68 11.287-.378 4.085-.557 8.476-.717 13.1-.31 9.24-.475 19.46-1.63 29.974-.586 5.25-1.45 10.573-2.71 15.795-1.254 5.223-2.945 10.34-5.063 15.13-1.034 2.4-2.24 4.7-3.48 6.9-.663 1.078-1.322 2.145-1.97 3.2l-.244.392-.06.098-.123.21-.03.042-.123.172-.49.68c-.33.45-.66.895-.985 1.34-2.613 3.546-5.156 6.858-7.56 9.884-1.22 1.5-2.365 2.954-3.5 4.31-1.153 1.346-2.264 2.62-3.335 3.795-2.132 2.36-4.033 4.384-5.644 6.026-3.204 3.293-5.21 5.06-5.21 5.06s.664-2.576 2.127-6.88zm34.733 177.278l.06-.055.24-.22 1.936-1.77c1.25-1.268 2.553-2.498 3.79-3.874 5.01-5.403 9.76-11.874 14.458-18.856 4.727-6.95 9.455-14.352 14.775-21.106 2.65-3.375 5.464-6.57 8.395-9.44 2.93-2.867 6.064-5.355 9.19-7.314 3.148-1.936 6.228-3.41 9.12-4.23.7-.242 1.405-.415 2.087-.56.675-.158 1.327-.29 1.948-.413 1.277-.16 2.42-.303 3.464-.364 1.072-.02 2.003-.015 2.8.01.788.024 1.434.16 1.972.22l1.64.252-1.474.764c-.472.252-1.098.51-1.76.888-.63.373-1.356.8-2.17 1.28l-2.55 1.73c-.852.746-1.833 1.35-2.738 2.24-1.892 1.597-3.762 3.662-5.637 5.98-1.873 2.334-3.726 4.997-5.556 7.994-1.85 2.977-3.68 6.265-5.603 9.74-3.838 6.946-8.02 14.71-13.144 22.322-2.566 3.795-5.388 7.54-8.493 11.048-3.098 3.51-6.507 6.763-10.118 9.577-1.79 1.422-3.673 2.7-5.545 3.875l-2.85 1.646-.35.2-.088.05c.126-.082-.222.142-.2.127l-.04.02-.164.08-.652.316c-.43.214-.87.405-1.302.606-3.45 1.607-6.76 3.056-9.846 4.34-1.556.622-3.032 1.245-4.464 1.79-1.443.53-2.82 1.03-4.132 1.46-2.617.88-4.922 1.604-6.847 2.152-3.84 1.114-6.137 1.568-6.137 1.568s1.478-1.793 4.248-4.612c2.753-2.863 6.843-6.6 11.81-11.09 2.5-2.214 5.245-4.553 8.195-6.954.368-.3.732-.614 1.114-.907l.566-.448.144-.113.034-.027c.044-.03-.278.177-.128.077z"/></svg>